<!DOCTYPE svg PUBLIC "-//W3C//DTD SVG 1.1//EN" "http://www.w3.org/Graphics/SVG/1.1/DTD/svg11.dtd">
<!-- Uploaded to: SVG Repo, www.svgrepo.com, Transformed by: SVG Repo Mixer Tools -->
<svg width="800px" height="800px" viewBox="0 0 20 20" xmlns="http://www.w3.org/2000/svg" fill="#ffffff">
<g id="SVGRepo_bgCarrier" stroke-width="0"/>
<g id="SVGRepo_tracerCarrier" stroke-linecap="round" stroke-linejoin="round"/>
<g id="SVGRepo_iconCarrier"> <rect x="0" fill="none" width="20" height="20"/> <g> <path d="M10 6c3.9 0 7-.9 7-2s-3.1-2-7-2-7 .9-7 2 3.1 2 7 2zm0 9c-3.9 0-7-.9-7-2v3c0 1.1 3.1 2 7 2s7-.9 7-2v-3c0 1.1-3.1 2-7 2zm0-4c-3.9 0-7-.9-7-2v3c0 1.1 3.1 2 7 2s7-.9 7-2V9c0 1.1-3.1 2-7 2zm0-4c-3.9 0-7-.9-7-2v3c0 1.1 3.1 2 7 2s7-.9 7-2V5c0 1.1-3.1 2-7 2z"/> </g> </g>
</svg>